<svg width="60" height="60" viewBox="0 0 60 60" fill="none" xmlns="http://www.w3.org/2000/svg">
<g opacity="0.2">
<path d="M28.3086 27.8295C28.883 26.9678 29.1703 25.9625 29.1703 24.8136C29.1703 21.7978 26.5853 19.5 23.713 19.5H15.3835C14.9527 19.5 14.6655 19.7872 14.6655 20.2181V38.4568C14.6655 38.8876 14.9527 39.1748 15.3835 39.1748H24.5747C28.0214 39.1748 30.8936 36.4462 30.8936 32.9995C30.8936 30.8453 29.8883 28.9784 28.3086 27.8295ZM18.2558 23.2339H23.713C24.7183 23.2339 25.4364 24.0956 25.4364 24.9573C25.4364 25.9625 24.5747 26.6806 23.713 26.6806H18.2558V23.2339ZM24.7183 35.5845H18.2558V30.4145H24.7183C26.1544 30.4145 27.3033 31.5634 27.3033 32.9995C27.3033 34.4356 26.1544 35.5845 24.7183 35.5845Z" fill="#F2F8FA"/>
<path d="M46.8345 31.707C46.8345 27.3987 43.5315 23.952 39.3667 23.952C35.202 23.952 31.8989 27.3987 31.8989 31.707C31.8989 36.0154 35.202 39.4621 39.3667 39.4621C41.8081 39.4621 44.1059 38.1696 45.542 36.0154C45.6856 35.7282 45.8292 35.4409 45.9729 35.1537C46.1165 35.0101 45.9729 34.7229 45.6856 34.7229H42.0953C41.9517 34.7229 41.9517 34.7229 41.8081 34.8665C41.0901 35.5845 40.2284 35.8718 39.3667 35.8718C37.4998 35.8718 36.0636 34.5793 35.6328 32.7123H46.1165C46.5473 32.7123 46.8345 32.4251 46.8345 31.9942V31.707ZM39.3667 27.6859C40.6592 27.6859 41.8081 28.4039 42.5262 29.5528H36.2072C36.7817 28.4039 38.0742 27.6859 39.3667 27.6859Z" fill="#F2F8FA"/>
<path d="M42.3826 23.0903H35.7764C35.4892 23.0903 35.202 22.8031 35.202 22.5159V20.9361C35.202 20.6489 35.4892 20.3617 35.7764 20.3617H42.3826C42.6698 20.3617 42.957 20.6489 42.957 20.9361V22.6595C42.957 22.8031 42.8134 23.0903 42.3826 23.0903Z" fill="#F2F8FA"/>
</g>
</svg>
