<svg width="28" height="28" viewBox="0 0 28 28" fill="none" xmlns="http://www.w3.org/2000/svg">
<g id="Iconly/Light-outline/Filter 2">
<g id="Filter 2">
<path id="Filter 2_2" fill-rule="evenodd" clip-rule="evenodd" d="M3.52582 0.875H23.8908C25.3616 0.875 26.5417 2.09244 26.5417 3.58188V5.56676C26.5417 6.29008 26.2601 6.98329 25.7578 7.48974L17.0737 16.2946L17.0744 22.9616C17.0744 23.2651 16.9211 23.5446 16.6725 23.7087L16.5603 23.7717L10.8584 26.4553C10.2646 26.7348 9.58175 26.3016 9.58175 25.6453L9.58137 16.2744L1.58189 7.45362C1.17714 7.00824 0.933415 6.43901 0.884251 5.83859L0.875 5.61215V3.58188C0.875 2.09244 2.05508 0.875 3.52582 0.875ZM23.8909 2.66562H3.52583C3.05678 2.66562 2.66571 3.06907 2.66571 3.58187V5.61214C2.66571 5.8517 2.75285 6.07959 2.90774 6.25003L11.1403 15.3271C11.2897 15.4918 11.3725 15.7062 11.3725 15.9286L11.3721 24.2331L15.283 22.3935L15.2837 15.9286C15.2837 15.7404 15.343 15.5582 15.4513 15.4071L15.5415 15.3L24.4845 6.23066C24.6538 6.05995 24.751 5.82078 24.751 5.56675V3.58187C24.751 3.06907 24.3599 2.66562 23.8909 2.66562Z" fill="#CDDBE2"/>
</g>
</g>
</svg>
