<svg width="60" height="60" viewBox="0 0 60 60" fill="none" xmlns="http://www.w3.org/2000/svg">
<path d="M46.5829 21.0052C46.6174 19.2856 46.2397 17.547 45.9329 15.8351C45.8274 15.2458 45.6135 14.6763 45.4027 14.1175C45.244 13.6969 44.7753 13.429 44.3435 13.5211C44.0641 13.5806 43.8129 13.6386 43.5693 13.7187C41.0191 14.5577 38.6579 15.7847 36.3895 17.2102C36.0847 17.4015 35.6415 17.4706 35.2735 17.4436C34.3933 17.3793 33.5227 17.1602 32.6428 17.1185C30.4654 17.0154 28.2922 17.0816 26.1345 17.459C25.8345 17.5114 25.4396 17.4598 25.1904 17.2987C22.7169 15.6982 20.1433 14.3283 17.2483 13.5591C16.8138 13.4437 16.3665 13.5048 16.2566 13.6774C16.1895 13.783 16.1288 13.8925 16.0955 14.0099C15.7827 15.1088 15.4121 16.2021 15.2303 17.3244C15.0137 18.6638 14.8053 20.0437 14.9081 21.3814C14.9728 22.2223 14.7406 22.7391 14.2811 23.3292C12.7397 25.3094 12.0456 27.5858 12.0031 30.0816C11.9666 32.2162 12.2491 34.2965 12.8992 36.3371C13.8949 39.4639 15.8176 41.8104 18.7127 43.3371C21.093 44.5923 23.6868 45.0761 26.3409 45.1694C28.7332 45.2531 31.1301 45.1821 33.5251 45.1956C35.9257 45.209 38.2932 44.9951 40.5897 44.2467C42.8883 43.4978 44.8773 42.2894 46.4207 40.3893C48.6498 37.6447 49.3438 34.4116 49.4863 30.9891C49.5955 28.3719 49.0621 25.9099 47.5294 23.7689C46.9079 22.9002 46.5595 22.1541 46.5829 21.0052ZM41.9613 41.0592C40.9318 41.9494 39.673 42.3708 38.3844 42.6787C35.8562 43.2828 33.2818 43.4332 30.6991 43.3204C28.1462 43.4311 25.6226 43.272 23.1388 42.6874C21.3065 42.2565 19.6338 41.5318 18.4679 39.9591C16.6126 37.4561 16.1384 32.6928 19.2041 30.0931C19.9858 29.4303 20.8577 29.0097 21.888 28.9443C23.025 28.8716 24.1623 28.7299 25.2985 28.7434C28.1645 28.7775 31.0293 28.9201 33.895 28.9415C35.2038 28.9509 36.5218 28.6458 37.821 28.7244C39.0016 28.7958 40.243 29.0132 41.3145 29.4883C43.1007 30.2804 44.0622 31.8864 44.3527 33.7675C44.7853 36.5645 44.2146 39.1103 41.9613 41.0592Z" fill="#F2F8FA"/>
<path d="M37.2911 39.2571C38.7997 39.2571 40.0226 37.6226 40.0226 35.6065C40.0226 33.5903 38.7997 31.9559 37.2911 31.9559C35.7825 31.9559 34.5596 33.5903 34.5596 35.6065C34.5596 37.6226 35.7825 39.2571 37.2911 39.2571Z" fill="#F2F8FA"/>
<path d="M24.2574 39.2571C25.7662 39.2571 26.9893 37.6226 26.9893 35.6065C26.9893 33.5903 25.7662 31.9559 24.2574 31.9559C22.7487 31.9559 21.5255 33.5903 21.5255 35.6065C21.5255 37.6226 22.7487 39.2571 24.2574 39.2571Z" fill="#F2F8FA"/>
</svg>
