<svg width="64" height="57" viewBox="0 0 64 57" fill="none" xmlns="http://www.w3.org/2000/svg">
<rect width="64" height="57" rx="2" fill="white"/>
<path d="M61.9065 0H2.09345C1.04672 0 0 0.897187 0 2.09345V54.8785C0 56.0748 0.897187 56.972 2.09345 56.972H61.9065C62.9533 56.972 64 56.0748 64 54.8785V2.09345C64 0.897187 63.1028 0 61.9065 0ZM49.3458 4.33644C50.8411 4.33644 52.0374 5.53271 52.0374 7.02803C52.0374 8.52336 50.8411 9.71963 49.3458 9.71963C47.8505 9.71963 46.6542 8.52336 46.6542 7.02803C46.6542 5.53271 47.8505 4.33644 49.3458 4.33644ZM41.271 4.33644C42.7664 4.33644 43.9626 5.53271 43.9626 7.02803C43.9626 8.52336 42.7664 9.71963 41.271 9.71963C39.7757 9.71963 38.5794 8.52336 38.5794 7.02803C38.5794 5.53271 39.7757 4.33644 41.271 4.33644ZM59.9626 52.6355H4.18692V14.2056H59.9626V52.6355ZM57.271 9.71963C55.7757 9.71963 54.5794 8.52336 54.5794 7.02803C54.5794 5.53271 55.7757 4.33644 57.271 4.33644C58.7664 4.33644 59.9626 5.53271 59.9626 7.02803C59.9626 8.52336 58.7664 9.71963 57.271 9.71963Z" fill="#0C0D20"/>
<path d="M21.8318 43.2151C21.3832 43.2151 20.9346 43.0655 20.486 42.7665L10.1682 35.5889C9.57011 35.1403 9.12152 34.3926 9.12152 33.645C9.12152 32.8973 9.42058 32.1496 10.1682 31.701L20.486 24.5235C21.5327 23.7758 23.0281 24.0749 23.6262 25.1216C24.3739 26.1683 24.0748 27.6637 23.028 28.2618L15.4019 33.4954L23.028 38.7291C24.0748 39.4767 24.3739 40.8225 23.6262 41.8693C23.3271 42.916 22.5795 43.2151 21.8318 43.2151Z" fill="#0C0D20"/>
<path d="M42.0187 43.2149C41.2711 43.2149 40.5234 42.9159 40.0748 42.1682C39.3271 41.1215 39.6262 39.6262 40.6729 39.028L48.2991 33.7944L40.6729 28.5607C39.6262 27.8131 39.3271 26.4673 40.0748 25.4206C40.8225 24.3738 42.1683 24.0748 43.215 24.8224L53.5328 32C54.1309 32.4486 54.5795 33.1962 54.5795 33.9439C54.5795 34.6916 54.2804 35.4392 53.5328 35.8878L43.215 43.0654C43.0654 43.0654 42.4673 43.2149 42.0187 43.2149Z" fill="#F7523B"/>
<path d="M28.2617 45.0094C27.9626 45.0094 27.6636 45.0094 27.3645 44.8599C26.1682 44.4113 25.5701 43.0655 26.1682 41.8692L33.4953 23.9253C33.9439 22.729 35.2897 22.1309 36.486 22.729C37.6823 23.1776 38.2804 24.5234 37.6823 25.7197L30.3552 43.6636C30.0561 44.4113 29.1589 45.0094 28.2617 45.0094Z" fill="#F7523B"/>
</svg>
