<svg width="64" height="57" viewBox="0 0 64 57" fill="none" xmlns="http://www.w3.org/2000/svg">
<rect width="64" height="57" rx="2" fill="white"/>
<path d="M61.9065 0H2.0934C0.897142 0 0 0.897233 0 2.0935V54.8785C0 56.0748 0.897142 56.972 2.0934 56.972H61.9065C62.9532 56.972 64 56.0748 64 54.8785V2.0935C64 0.897233 63.1028 0 61.9065 0ZM49.1962 4.33649C50.6915 4.33649 51.8878 5.53273 51.8878 7.02806C51.8878 8.52339 50.6915 9.71963 49.1962 9.71963C47.7009 9.71963 46.5046 8.52339 46.5046 7.02806C46.5046 5.53273 47.7009 4.33649 49.1962 4.33649ZM41.271 4.33649C42.7663 4.33649 43.9626 5.53273 43.9626 7.02806C43.9626 8.52339 42.7663 9.71963 41.271 9.71963C39.7757 9.71963 38.5794 8.52339 38.5794 7.02806C38.5794 5.53273 39.7757 4.33649 41.271 4.33649ZM59.9626 52.7851H4.1869V14.2056H59.9626V52.7851ZM57.271 9.71963C55.7757 9.71963 54.5795 8.52339 54.5795 7.02806C54.5795 5.53273 55.7757 4.33649 57.271 4.33649C58.7663 4.33649 59.9626 5.53273 59.9626 7.02806C59.9626 8.52339 58.7663 9.71963 57.271 9.71963Z" fill="#0C0D20"/>
<path d="M8.67285 27.0655C8.67285 25.5701 8.97192 24.3739 9.42052 23.6262C10.0186 22.8786 10.7663 22.4299 11.6635 22.4299C12.7102 22.4299 13.4579 22.8786 14.056 23.6262C14.5046 24.3739 14.8037 25.5701 14.8037 27.0655C14.8037 28.5608 14.5046 29.7571 14.056 30.5047C13.4579 31.2524 12.7102 31.701 11.813 31.701C10.7663 31.701 10.0186 31.2524 9.42052 30.5047C8.97192 29.7571 8.67285 28.5608 8.67285 27.0655ZM10.3177 27.0655C10.3177 28.1122 10.4672 28.8599 10.6168 29.458C10.7663 30.0561 11.2149 30.3552 11.6635 30.3552C12.1121 30.3552 12.5607 30.0561 12.7103 29.6075C13.0093 29.1589 13.0092 28.2617 13.0092 27.215C13.0092 26.1683 12.8598 25.4206 12.7103 24.8225C12.5607 24.2243 12.1121 23.9253 11.5139 23.9253C11.0653 23.9253 10.6168 24.2243 10.4673 24.6729C10.4673 25.1215 10.3177 26.0187 10.3177 27.0655Z" fill="#0C0D20"/>
<path d="M17.6449 30.0561H19.4393V24.972L19.5888 24.0748L18.9906 24.8224L17.7944 25.5701L17.0467 24.6729L19.8879 22.2804H20.785V29.9065H22.5794V31.2524H17.4953V30.0561H17.6449Z" fill="#F7523B"/>
<path d="M24.9719 27.0655C24.9719 25.5701 25.271 24.3739 25.7196 23.6262C26.3177 22.8786 27.0654 22.4299 27.9626 22.4299C29.0093 22.4299 29.757 22.8786 30.3552 23.6262C30.8038 24.3739 31.1028 25.5701 31.1028 27.0655C31.1028 28.5608 30.8038 29.7571 30.3552 30.5047C29.757 31.2524 29.0094 31.701 28.1122 31.701C27.0654 31.701 26.3177 31.2524 25.7196 30.5047C25.271 29.7571 24.9719 28.5608 24.9719 27.0655ZM26.6168 27.0655C26.6168 28.1122 26.7664 28.8599 26.9159 29.458C27.0655 30.0561 27.514 30.3552 27.9626 30.3552C28.4112 30.3552 28.8598 30.0561 29.0093 29.6075C29.3084 29.1589 29.3084 28.2617 29.3084 27.215C29.3084 26.1683 29.1589 25.4206 29.0093 24.8225C28.8598 24.2243 28.4112 23.9253 27.8131 23.9253C27.3645 23.9253 26.9159 24.2243 26.7663 24.6729C26.7663 25.1215 26.6168 26.0187 26.6168 27.0655Z" fill="#0C0D20"/>
<path d="M33.9438 30.0561H35.7383V24.972L35.8878 24.0748L35.2897 24.8224L34.0934 25.5701L33.3458 24.6729L36.1868 22.2804H37.0841V29.9065H38.8785V31.2524H33.7943V30.0561H33.9438Z" fill="#F7523B"/>
<path d="M41.271 27.0655C41.271 25.5701 41.5701 24.3739 42.0187 23.6262C42.6168 22.8786 43.3645 22.4299 44.2617 22.4299C45.3084 22.4299 46.056 22.8786 46.6541 23.6262C47.1027 24.3739 47.4018 25.5701 47.4018 27.0655C47.4018 28.5608 47.1027 29.7571 46.6541 30.5047C46.056 31.2524 45.3083 31.701 44.4111 31.701C43.3644 31.701 42.6168 31.2524 42.0187 30.5047C41.5701 29.7571 41.271 28.5608 41.271 27.0655ZM42.9158 27.0655C42.9158 28.1122 43.0654 28.8599 43.2149 29.458C43.3644 30.0561 43.8131 30.3552 44.2617 30.3552C44.7102 30.3552 45.1589 30.0561 45.3084 29.6075C45.6075 29.1589 45.6075 28.2617 45.6075 27.215C45.6075 26.1683 45.4579 25.4206 45.3084 24.8225C45.1589 24.2243 44.7103 23.9253 44.1122 23.9253C43.6636 23.9253 43.2149 24.2243 43.0654 24.6729C43.0654 25.1215 42.9158 26.0187 42.9158 27.0655Z" fill="#0C0D20"/>
<path d="M50.2429 30.0561H52.0374V24.972L52.1869 24.0748L51.5888 24.8224L50.3924 25.5701L49.6448 24.6729L52.4859 22.2804H53.3831V29.9065H55.1775V31.2524H50.2429V30.0561Z" fill="#F7523B"/>
<path d="M8.67285 42.3177C8.67285 40.8223 8.97192 39.626 9.42052 38.8784C10.0186 38.1307 10.7663 37.6821 11.6635 37.6821C12.7102 37.6821 13.4579 38.1307 14.056 38.8784C14.5046 39.626 14.8037 40.8223 14.8037 42.3177C14.8037 43.813 14.5046 45.0092 14.056 45.7569C13.4579 46.5046 12.7102 46.9532 11.813 46.9532C10.7663 46.9532 10.0186 46.5046 9.42052 45.7569C8.97192 44.8597 8.67285 43.813 8.67285 42.3177ZM10.3177 42.3177C10.3177 43.3644 10.4672 44.1121 10.6168 44.7102C10.7663 45.3083 11.2149 45.6073 11.6635 45.6073C12.1121 45.6073 12.5607 45.3083 12.7103 44.8597C13.0093 44.4111 13.0092 43.5139 13.0092 42.4672C13.0092 41.4205 12.8598 40.6728 12.7103 40.0747C12.5607 39.4765 12.1121 39.1775 11.5139 39.1775C11.0653 39.1775 10.6168 39.4765 10.4673 39.9251C10.4673 40.3737 10.3177 41.1214 10.3177 42.3177Z" fill="#0C0D20"/>
<path d="M16.8972 42.3177C16.8972 40.8223 17.1962 39.626 17.6448 38.8784C18.243 38.1307 18.9906 37.6821 19.8878 37.6821C20.9345 37.6821 21.6822 38.1307 22.2803 38.8784C22.8784 39.626 23.028 40.8223 23.028 42.3177C23.028 43.813 22.7289 45.0092 22.2803 45.7569C21.6822 46.5046 20.9345 46.9532 20.0373 46.9532C18.9906 46.9532 18.243 46.5046 17.6448 45.7569C17.0467 44.8597 16.8972 43.813 16.8972 42.3177ZM18.542 42.3177C18.542 43.3644 18.6915 44.1121 18.8411 44.7102C18.9906 45.3083 19.4392 45.6073 19.8878 45.6073C20.3364 45.6073 20.785 45.3083 20.9346 44.8597C21.2336 44.4111 21.2336 43.5139 21.2336 42.4672C21.2336 41.4205 21.0841 40.6728 20.9346 40.0747C20.785 39.4765 20.3364 39.1775 19.7382 39.1775C19.2896 39.1775 18.8411 39.4765 18.6916 39.9251C18.6916 40.3737 18.542 41.1214 18.542 42.3177Z" fill="#0C0D20"/>
<path d="M25.8692 45.3084H27.6636V40.2243L27.8131 39.3271L27.2149 40.0748L26.0187 40.8225L25.271 39.9252L28.1122 37.5327H29.0093V45.1589H30.8037V46.5047H25.7196V45.3084H25.8692Z" fill="#F7523B"/>
<path d="M33.1962 42.3177C33.1962 40.8223 33.4952 39.626 33.9438 38.8784C34.542 38.1307 35.2896 37.6821 36.1868 37.6821C37.2336 37.6821 37.9813 38.1307 38.5794 38.8784C39.028 39.626 39.3271 40.8223 39.3271 42.3177C39.3271 43.813 39.028 45.0092 38.5794 45.7569C37.9813 46.5046 37.2336 46.9532 36.3364 46.9532C35.2897 46.9532 34.542 46.5046 33.9438 45.7569C33.4952 44.8597 33.1962 43.813 33.1962 42.3177ZM34.8411 42.3177C34.8411 43.3644 34.9906 44.1121 35.1402 44.7102C35.2897 45.3083 35.7382 45.6073 36.1868 45.6073C36.6354 45.6073 37.084 45.3083 37.2336 44.8597C37.5326 44.4111 37.5327 43.5139 37.5327 42.4672C37.5327 41.4205 37.3831 40.6728 37.2336 40.0747C37.084 39.4765 36.6355 39.1775 36.0373 39.1775C35.5887 39.1775 35.1401 39.4765 34.9906 39.9251C34.9906 40.3737 34.8411 41.1214 34.8411 42.3177Z" fill="#0C0D20"/>
<path d="M42.1681 45.3084H43.9626V40.2243L44.1121 39.3271L43.514 40.0748L42.3177 40.8225L41.5701 39.9252L44.4111 37.5327H45.3084V45.1589H47.1028V46.5047H42.0186V45.3084H42.1681Z" fill="#F7523B"/>
<path d="M49.4953 42.3177C49.4953 40.8223 49.7944 39.626 50.243 38.8784C50.8411 38.1307 51.5888 37.6821 52.486 37.6821C53.5327 37.6821 54.2803 38.1307 54.8784 38.8784C55.4766 39.626 55.6261 40.8223 55.6261 42.3177C55.6261 43.813 55.327 45.0092 54.8784 45.7569C54.2803 46.5046 53.5326 46.9532 52.6355 46.9532C51.5887 46.9532 50.8411 46.5046 50.243 45.7569C49.7944 44.8597 49.4953 43.813 49.4953 42.3177ZM51.1401 42.3177C51.1401 43.3644 51.2897 44.1121 51.4392 44.7102C51.5887 45.3083 52.0374 45.6073 52.486 45.6073C52.9346 45.6073 53.3832 45.3083 53.5327 44.8597C53.8318 44.4111 53.8318 43.5139 53.8318 42.4672C53.8318 41.4205 53.6822 40.6728 53.5327 40.0747C53.3832 39.4765 52.9346 39.1775 52.3365 39.1775C51.8879 39.1775 51.4392 39.4765 51.2897 39.9251C51.2897 40.3737 51.1401 41.1214 51.1401 42.3177Z" fill="#0C0D20"/>
</svg>
