<svg width="84" height="57" viewBox="0 0 84 57" fill="none" xmlns="http://www.w3.org/2000/svg">
<g id="webDesign" clip-path="url(#clip0)">
<rect id="back" width="64" height="57" rx="2" fill="white"/>
<g id="orangeGroup">
<path id="rectangle" d="M23.1889 31.4172H8.67712V46.8267H23.1889V31.4172Z" fill="#F7523B"/>
</g>
<g id="blueGroup">
<g id="pencil">
<path id="grifPencil" d="M50.118 41.1417L49.9684 41.5905L48.3228 47.126L53.8582 45.4803L54.307 45.3307L50.118 41.1417Z" fill="#0C0D20"/>
<path id="topPencil" d="M80.6377 23.189L82.7321 21.0945C83.4802 20.3465 83.4802 19.1496 82.7321 18.4016L77.0471 12.7165C76.2991 11.9685 75.1022 11.9685 74.3542 12.7165L72.2597 14.8111L80.6377 23.189Z" fill="#0C0D20"/>
<path id="pencil_2" d="M71.3621 15.7087L71.2125 15.8584L53.7086 33.2127C52.9606 33.9607 52.9606 35.3072 53.7086 36.0552L53.8582 36.2048C54.4566 36.8032 55.2047 36.9528 55.9527 36.6536C55.8031 37.4016 55.9527 38.1497 56.4015 38.7481L56.5511 38.8977C57.1495 39.4961 57.8976 39.6457 58.6456 39.3465C58.496 40.0945 58.496 40.8426 59.0944 41.441L59.2441 41.5906C59.9921 42.3386 61.3385 42.3386 62.0866 41.5906L79.4409 24.2363L79.5905 24.0867L71.3621 15.7087Z" fill="#0C0D20"/>
</g>
<path id="bottomLine" d="M41.4409 44.2836H25.8818V46.378H41.4409V44.2836Z" fill="#0C0D20"/>
<path id="middleLine" d="M41.4409 38H25.8818V40.0944H41.4409V38Z" fill="#0C0D20"/>
<path id="topLine" d="M41.4409 31.7166H25.8818V33.8111H41.4409V31.7166Z" fill="#F7523B"/>
<path id="bigLine" d="M55 19H9V28H55V19Z" fill="#0C0D20"/>
</g>
<g id="frame">
<path id="frame_2" d="M61.9369 0H2.09448C0.897628 0 0 0.897673 0 2.09452V54.9055C0 56.1023 0.897628 57 2.09448 57H61.9369C62.9842 57 64.0314 56.1023 64.0314 54.9055V2.09452C63.8818 0.897673 62.9842 0 61.9369 0ZM49.2204 4.33862C50.7165 4.33862 51.9133 5.53545 51.9133 7.03151C51.9133 8.52757 50.7165 9.7244 49.2204 9.7244C47.7244 9.7244 46.5275 8.52757 46.5275 7.03151C46.5275 5.53545 47.7244 4.33862 49.2204 4.33862ZM41.2913 4.33862C42.7874 4.33862 43.9842 5.53545 43.9842 7.03151C43.9842 8.52757 42.7874 9.7244 41.2913 9.7244C39.7952 9.7244 38.5984 8.52757 38.5984 7.03151C38.5984 5.53545 39.7952 4.33862 41.2913 4.33862ZM59.8425 52.811H4.03934V14.2126H59.8425V52.811ZM57.1495 9.7244C55.6535 9.7244 54.4566 8.52757 54.4566 7.03151C54.4566 5.53545 55.6535 4.33862 57.1495 4.33862C58.6456 4.33862 59.8425 5.53545 59.8425 7.03151C59.8425 8.52757 58.6456 9.7244 57.1495 9.7244Z" fill="#0C0D20"/>
</g>
</g>
<defs>
<clipPath id="clip0">
<rect width="83.2932" height="57" fill="white"/>
</clipPath>
</defs>
</svg>
