<svg width="60" height="60" viewBox="0 0 60 60" fill="none" xmlns="http://www.w3.org/2000/svg">
<path d="M44.0584 32.6656C44.1526 31.9123 44.2468 31.2532 44.2468 30.5C44.2468 22.9675 38.1266 16.7532 30.5 16.7532C29.7468 16.7532 29.0877 16.8474 28.3344 16.9416C27.1104 16.2825 25.7922 16 24.474 16C19.7662 16 16 19.7662 16 24.474C16 25.7922 16.2825 27.1104 16.9416 28.3344C16.8474 29.0877 16.7532 29.7468 16.7532 30.5C16.7532 38.0325 22.8734 44.2468 30.5 44.2468C31.2532 44.2468 31.9123 44.1526 32.6656 44.0584C33.8896 44.6234 35.2078 45 36.526 45C41.2338 45 45 41.2338 45 36.526C45 35.2078 44.6234 33.8896 44.0584 32.6656ZM36.2435 35.4903C35.961 36.0552 35.5844 36.526 35.0195 36.9026C34.4545 37.2792 33.8896 37.5617 33.1364 37.75C32.3831 37.9383 31.5357 38.0325 30.5942 38.0325C28.6169 38.0325 27.0162 37.5617 25.8864 36.7143C25.2273 36.1494 24.6623 35.4903 24.3799 34.6429C24.0032 33.8896 24.6623 32.9481 25.6039 32.9481H25.8864C26.4513 32.9481 27.0162 33.3247 27.2045 33.7955C27.3929 34.2662 27.6753 34.6429 28.0519 34.9253C28.6169 35.3961 29.4643 35.5844 30.5 35.5844C31.4416 35.5844 32.1948 35.3961 32.7597 35.1136C33.3247 34.8312 33.6071 34.2662 33.6071 33.7013C33.6071 33.4188 33.513 33.2305 33.4188 33.0422C33.3247 32.8539 33.0422 32.6656 32.8539 32.5714C32.5714 32.3831 32.289 32.289 31.8182 32.1948C31.4416 32.1007 30.9708 31.9123 30.4058 31.8182L29.8409 31.6299C29.1818 31.4416 28.4286 31.2532 27.8636 31.0649C27.2045 30.8766 26.6396 30.5942 26.1688 30.3117C25.6981 30.0292 25.3214 29.6526 25.039 29.0877C24.7565 28.6169 24.6623 27.9578 24.6623 27.2045C24.6623 26.4513 24.8506 25.7922 25.1331 25.2273C25.4156 24.6623 25.8864 24.1916 26.3571 23.9091C26.9221 23.5325 27.487 23.25 28.2403 23.1558C28.8994 22.9675 29.6526 22.8734 30.5 22.8734C31.4416 22.8734 32.1948 22.9675 32.9481 23.1558C33.7013 23.3442 34.2662 23.6266 34.8312 24.0974C35.3961 24.474 35.7727 24.9448 36.0552 25.6039C36.526 26.4513 35.8669 27.5812 34.8312 27.5812H34.5487C33.9838 27.5812 33.513 27.2987 33.2305 26.8279C33.0422 26.5455 32.8539 26.263 32.5714 25.9805C32.1007 25.6039 31.3474 25.4156 30.5 25.4156C29.6526 25.4156 28.9935 25.6039 28.5227 25.8864C28.0519 26.1688 27.8636 26.6396 27.8636 27.1104C27.8636 27.3929 27.9578 27.5812 28.0519 27.7695C28.1461 27.9578 28.3344 28.1461 28.6169 28.2403C28.8994 28.3344 29.1818 28.5227 29.5584 28.6169C29.9351 28.711 30.4058 28.8052 30.9708 28.9935C31.5357 29.0877 32.0065 29.276 32.5714 29.3701C33.0422 29.4643 33.513 29.6526 33.9838 29.7468C34.4545 29.9351 34.8312 30.1234 35.2078 30.3117C35.5844 30.5 35.8669 30.7825 36.1494 31.0649C36.4318 31.3474 36.6201 31.724 36.7143 32.1007C36.9026 32.4773 36.9026 33.0422 36.9026 33.6071C36.7143 34.2662 36.526 34.9253 36.2435 35.4903Z" fill="white"/>
</svg>
